<svg width="50" height="50" viewBox="0 0 50 50" fill="none" xmlns="http://www.w3.org/2000/svg">
<rect width="50" height="50" fill="#FFEC19"/>
<rect x="11" y="28" width="2" height="2" fill="black"/>
<rect x="19" y="28" width="2" height="2" fill="black"/>
<rect width="2" height="2" transform="matrix(-1 0 0 1 41 28)" fill="black"/>
<rect x="27" y="28" width="2" height="2" fill="black"/>
<rect width="2" height="2" transform="matrix(-1 0 0 1 33 28)" fill="black"/>
<rect x="11" y="24" width="2" height="2" fill="black"/>
<rect x="19" y="26" width="2" height="2" fill="black"/>
<rect width="2" height="2" transform="matrix(-1 0 0 1 41 26)" fill="black"/>
<rect x="27" y="26" width="2" height="2" fill="black"/>
<rect width="2" height="2" transform="matrix(-1 0 0 1 33 26)" fill="black"/>
<rect x="11" y="26" width="2" height="2" fill="black"/>
<rect x="19" y="24" width="2" height="2" fill="black"/>
<rect width="2" height="2" transform="matrix(-1 0 0 1 41 24)" fill="black"/>
<rect x="27" y="24" width="2" height="2" fill="black"/>
<rect width="2" height="2" transform="matrix(-1 0 0 1 33 24)" fill="black"/>
<rect x="19" y="22" width="2" height="2" fill="black"/>
<rect width="2" height="2" transform="matrix(-1 0 0 1 41 22)" fill="black"/>
<rect x="19" y="20" width="2" height="2" fill="black"/>
<rect width="2" height="2" transform="matrix(-1 0 0 1 41 20)" fill="black"/>
<rect x="19" y="18" width="2" height="2" fill="black"/>
<rect width="2" height="2" transform="matrix(-1 0 0 1 41 18)" fill="black"/>
<rect x="11" y="22" width="2" height="2" fill="black"/>
<rect x="11" y="20" width="2" height="2" fill="black"/>
<rect x="9" y="22" width="2" height="2" fill="black"/>
<rect x="13" y="22" width="2" height="2" fill="black"/>
<rect x="13" y="30" width="2" height="2" fill="black"/>
<rect x="21" y="30" width="2" height="2" fill="black"/>
<rect width="2" height="2" transform="matrix(-1 0 0 1 39 30)" fill="black"/>
<rect x="23" y="22" width="2" height="2" fill="black"/>
<rect width="2" height="2" transform="matrix(-1 0 0 1 39 22)" fill="black"/>
<rect x="15" y="22" width="2" height="2" fill="black"/>
<rect x="15" y="30" width="2" height="2" fill="black"/>
<rect x="23" y="30" width="2" height="2" fill="black"/>
<rect width="2" height="2" transform="matrix(-1 0 0 1 37 30)" fill="black"/>
<rect x="21" y="22" width="2" height="2" fill="black"/>
<rect width="2" height="2" transform="matrix(-1 0 0 1 37 22)" fill="black"/>
<rect x="25" y="30" width="2" height="2" fill="black"/>
<rect width="2" height="2" transform="matrix(-1 0 0 1 35 30)" fill="black"/>
<rect x="25" y="22" width="2" height="2" fill="black"/>
<rect width="2" height="2" transform="matrix(-1 0 0 1 35 22)" fill="black"/>
</svg>